<?xml version="1.0" encoding="UTF-8" standalone="no"?>
<!-- Created with Inkscape (http://www.inkscape.org/) -->

<svg
   xmlns:dc="http://purl.org/dc/elements/1.1/"
   xmlns:cc="http://creativecommons.org/ns#"
   xmlns:rdf="http://www.w3.org/1999/02/22-rdf-syntax-ns#"
   xmlns:svg="http://www.w3.org/2000/svg"
   xmlns="http://www.w3.org/2000/svg"
   xmlns:sodipodi="http://sodipodi.sourceforge.net/DTD/sodipodi-0.dtd"
   xmlns:inkscape="http://www.inkscape.org/namespaces/inkscape"
   width="744.09448819"
   height="1052.3622047"
   id="svg2"
   version="1.1"
   inkscape:version="0.48.4 r9939"
   sodipodi:docname="logo.svg">
  <defs
     id="defs4" />
  <sodipodi:namedview
     id="base"
     pagecolor="#ffffff"
     bordercolor="#666666"
     borderopacity="1.0"
     inkscape:pageopacity="0.0"
     inkscape:pageshadow="2"
     inkscape:zoom="1"
     inkscape:cx="369.30474"
     inkscape:cy="736.08188"
     inkscape:document-units="px"
     inkscape:current-layer="g2995"
     showgrid="false"
     inkscape:snap-global="false"
     inkscape:window-width="958"
     inkscape:window-height="1030"
     inkscape:window-x="960"
     inkscape:window-y="0"
     inkscape:window-maximized="0">
    <inkscape:grid
       type="xygrid"
       id="grid2985" />
  </sodipodi:namedview>
  <metadata
     id="metadata7">
    <rdf:RDF>
      <cc:Work
         rdf:about="">
        <dc:format>image/svg+xml</dc:format>
        <dc:type
           rdf:resource="http://purl.org/dc/dcmitype/StillImage" />
        <dc:title />
      </cc:Work>
    </rdf:RDF>
  </metadata>
  <g
     inkscape:label="Layer 1"
     inkscape:groupmode="layer"
     id="layer1">
    <g
       id="g2995"
       transform="matrix(1,0,0,0.87356396,0,25.649562)"
       style="stroke:none">
      <g
         id="g3003"
         transform="translate(-172,-50.162102)">
        <path
           style="fill:#808080;stroke:none"
           d="m 282.5625,126.15412 60,40 -60,40 -60,-40 z"
           id="path2987"
           inkscape:connector-curvature="0" />
        <path
           style="fill:#4d4d4d;stroke:none"
           d="m 280,122.03587 0,-80.000143 -60,40 0,80.000143 z"
           id="path2991"
           inkscape:connector-curvature="0" />
        <path
           inkscape:connector-curvature="0"
           id="path2993"
           d="m 285.00149,122.07274 0,-80.00001 60,40 0,80.00001 z"
           style="fill:#cccccc;stroke:none" />
      </g>
      <text
         xml:space="preserve"
         style="font-size:96.63530731px;font-style:normal;font-variant:normal;font-weight:normal;font-stretch:normal;line-height:125%;letter-spacing:0px;word-spacing:0px;fill:#666666;fill-opacity:1;stroke:none;font-family:Oswald;-inkscape-font-specification:Oswald"
         x="201.58797"
         y="108.46597"
         id="text3798"
         sodipodi:linespacing="125%"
         transform="scale(0.93464643,1.0699233)"><tspan
           sodipodi:role="line"
           id="tspan3800"
           x="201.58797"
           y="108.46597"
           style="font-size:96.63530731px;font-style:normal;font-variant:normal;font-weight:300;font-stretch:extra-condensed;text-align:start;line-height:125%;writing-mode:lr-tb;text-anchor:start;fill:#666666;font-family:Oswald;-inkscape-font-specification:Oswald Light Ultra-Condensed">DEVSHOP.build</tspan></text>
      <text
         transform="scale(0.93464643,1.0699233)"
         sodipodi:linespacing="125%"
         id="text2999"
         y="387.87253"
         x="129.24677"
         style="font-size:109.1933136px;font-style:normal;font-variant:normal;font-weight:normal;font-stretch:normal;line-height:125%;letter-spacing:0px;word-spacing:0px;fill:#666666;fill-opacity:1;stroke:none;font-family:Oswald;-inkscape-font-specification:Oswald"
         xml:space="preserve"><tspan
           style="font-size:109.1933136px;font-style:normal;font-variant:normal;font-weight:300;font-stretch:extra-condensed;text-align:start;line-height:125%;writing-mode:lr-tb;text-anchor:start;fill:#666666;font-family:Oswald;-inkscape-font-specification:Oswald Light Ultra-Condensed"
           y="387.87253"
           x="129.24677"
           id="tspan3001"
           sodipodi:role="line" /></text>
      <g
         transform="translate(-175,297.8376)"
         id="g3984">
        <path
           inkscape:connector-curvature="0"
           id="path3986"
           d="m 282.5625,126.15412 60,40 -60,40 -60,-40 z"
           style="fill:#808080;stroke:none" />
        <path
           inkscape:connector-curvature="0"
           id="path3988"
           d="m 280,122.03587 0,-80.000143 -60,40 0,80.000143 z"
           style="fill:#4d4d4d;stroke:none" />
        <path
           style="fill:#cccccc;stroke:none"
           d="m 285.00149,122.07274 0,-80.00001 60,40 0,80.00001 z"
           id="path3990"
           inkscape:connector-curvature="0" />
      </g>
      <g
         id="g3832"
         transform="translate(-85,-99.592021)">
        <g
           transform="translate(0.70710678,36.829998)"
           id="g3818">
          <g
             id="g3797"
             transform="matrix(0.54266215,0,0,0.54266215,32.165504,306.70172)">
            <path
               inkscape:connector-curvature="0"
               id="path3025"
               d="m 242.89118,403.53729 0.35356,-29.98323 105.00535,0 -0.7071,31.3942 z"
               style="fill:#b3b3b3;stroke:none" />
            <path
               style="fill:#b3b3b3;fill-opacity:1;stroke:none"
               d="m 347.89655,403.23392 c 0,13.18789 -23.5854,23.8788 -52.67946,23.8788 -29.09406,0 -52.67946,-10.69091 -52.67946,-23.8788 13.4554,-34.70699 103.27458,-31.08457 105.35892,0 z"
               id="path3018"
               inkscape:connector-curvature="0"
               sodipodi:nodetypes="cscc" />
            <path
               transform="matrix(0.84180791,0,0,1.0233245,134.79773,-78.335517)"
               d="m 253.14423,440.00772 c 0,12.8873 -28.01755,23.33453 -62.57895,23.33453 -34.5614,0 -62.57895,-10.44723 -62.57895,-23.33453 0,-12.8873 28.01755,-23.33452 62.57895,-23.33452 34.5614,0 62.57895,10.44722 62.57895,23.33452 z"
               sodipodi:ry="23.334524"
               sodipodi:rx="62.578949"
               sodipodi:cy="440.00772"
               sodipodi:cx="190.56528"
               id="path3016"
               style="fill:#666666;fill-opacity:1;stroke:none"
               sodipodi:type="arc" />
          </g>
          <g
             transform="matrix(0.54266215,0,0,0.54266215,32.342281,281.81112)"
             id="g3802">
            <path
               style="fill:#b3b3b3;stroke:none"
               d="m 242.89118,403.53729 0.35356,-29.98323 105.00535,0 -0.7071,31.3942 z"
               id="path3804"
               inkscape:connector-curvature="0" />
            <path
               sodipodi:nodetypes="cscc"
               inkscape:connector-curvature="0"
               id="path3806"
               d="m 347.89655,403.23392 c 0,13.18789 -23.5854,23.8788 -52.67946,23.8788 -29.09406,0 -52.67946,-10.69091 -52.67946,-23.8788 13.4554,-34.70699 103.27458,-31.08457 105.35892,0 z"
               style="fill:#b3b3b3;fill-opacity:1;stroke:none" />
            <path
               sodipodi:type="arc"
               style="fill:#666666;fill-opacity:1;stroke:none"
               id="path3808"
               sodipodi:cx="190.56528"
               sodipodi:cy="440.00772"
               sodipodi:rx="62.578949"
               sodipodi:ry="23.334524"
               d="m 253.14423,440.00772 c 0,12.8873 -28.01755,23.33453 -62.57895,23.33453 -34.5614,0 -62.57895,-10.44723 -62.57895,-23.33453 0,-12.8873 28.01755,-23.33452 62.57895,-23.33452 34.5614,0 62.57895,10.44722 62.57895,23.33452 z"
               transform="matrix(0.84180791,0,0,1.0233245,134.79773,-78.335517)" />
          </g>
          <g
             id="g3810"
             transform="matrix(0.54266215,0,0,0.54266215,32.519058,256.51579)">
            <path
               inkscape:connector-curvature="0"
               id="path3812"
               d="m 242.89118,403.53729 0.35356,-29.98323 105.00535,0 -0.7071,31.3942 z"
               style="fill:#b3b3b3;stroke:none" />
            <path
               style="fill:#b3b3b3;fill-opacity:1;stroke:none"
               d="m 347.89655,403.23392 c 0,13.18789 -23.5854,23.8788 -52.67946,23.8788 -29.09406,0 -52.67946,-10.69091 -52.67946,-23.8788 13.4554,-34.70699 103.27458,-31.08457 105.35892,0 z"
               id="path3814"
               inkscape:connector-curvature="0"
               sodipodi:nodetypes="cscc" />
            <path
               transform="matrix(0.84180791,0,0,1.0233245,134.79773,-78.335517)"
               d="m 253.14423,440.00772 c 0,12.8873 -28.01755,23.33453 -62.57895,23.33453 -34.5614,0 -62.57895,-10.44723 -62.57895,-23.33453 0,-12.8873 28.01755,-23.33452 62.57895,-23.33452 34.5614,0 62.57895,10.44722 62.57895,23.33452 z"
               sodipodi:ry="23.334524"
               sodipodi:rx="62.578949"
               sodipodi:cy="440.00772"
               sodipodi:cx="190.56528"
               id="path3816"
               style="fill:#666666;fill-opacity:1;stroke:none"
               sodipodi:type="arc" />
          </g>
        </g>
      </g>
      <g
         id="g3992"
         transform="translate(-6.9999997,306.99549)">
        <path
           style="fill:#808080;stroke:none"
           d="m 282.5625,126.15412 60,40 -60,40 -60,-40 z"
           id="path3994"
           inkscape:connector-curvature="0" />
        <path
           style="fill:#4d4d4d;stroke:none"
           d="m 280,122.03587 0,-80.000143 -60,40 0,80.000143 z"
           id="path3996"
           inkscape:connector-curvature="0" />
        <path
           inkscape:connector-curvature="0"
           id="path3998"
           d="m 285.00149,122.07274 0,-80.00001 60,40 0,80.00001 z"
           style="fill:#cccccc;stroke:none" />
      </g>
      <g
         id="g3972"
         transform="translate(13.75,4.2927596)">
        <path
           sodipodi:nodetypes="cccccc"
           inkscape:connector-curvature="0"
           id="path3890"
           d="m 250.12,441.95902 0,-53.32838 32.00462,21.13704 7.99165,15.7686 0,43.08692 z"
           style="fill:#b3b3b3;stroke:none" />
        <path
           style="fill:#cccccc;stroke:none"
           d="m 282.25326,409.92985 0.0156,10.58881 7.98437,5.29441 z"
           id="path3930-1-1"
           inkscape:connector-curvature="0"
           sodipodi:nodetypes="cccc" />
      </g>
      <g
         transform="translate(162,303.56128)"
         id="g4000">
        <path
           inkscape:connector-curvature="0"
           id="path4002"
           d="m 282.5625,126.15412 60,40 -60,40 -60,-40 z"
           style="fill:#808080;stroke:none" />
        <path
           inkscape:connector-curvature="0"
           id="path4004"
           d="m 280,122.03587 0,-80.000143 -60,40 0,80.000143 z"
           style="fill:#4d4d4d;stroke:none" />
        <path
           style="fill:#cccccc;stroke:none"
           d="m 285.00149,122.07274 0,-80.00001 60,40 0,80.00001 z"
           id="path4006"
           inkscape:connector-curvature="0" />
      </g>
      <g
         id="g4008">
        <path
           sodipodi:nodetypes="ccccc"
           inkscape:connector-curvature="0"
           id="path3898-3"
           d="m 404,470.1246 0,-69.69739 38,26.26317 c 0,23.46709 0,69.69738 0,69.69738 z"
           style="fill:#e6e6e6;stroke:none" />
        <path
           sodipodi:nodetypes="ccccc"
           transform="matrix(1,0,0,1.1447359,0,-29.361974)"
           inkscape:connector-curvature="0"
           id="path3920"
           d="m 404.2883,375.48421 42.24963,-24.92551 34.11791,22.09709 -39.06765,26.33972 z"
           style="fill:#999999;stroke:none;stroke-width:1px;stroke-linecap:butt;stroke-linejoin:miter;stroke-opacity:1" />
        <rect
           transform="matrix(0.79155014,-0.61110423,0,1,0,0)"
           y="768.17706"
           x="558.3244"
           height="68.798416"
           width="48.685902"
           id="rect3922"
           style="fill:#f9f9f9;fill-opacity:1;stroke:none" />
        <path
           style="fill:#b3b3b3;stroke:none"
           d="m 429.87225,462.36862 0,-8.79467 6.2555,4.62566 c 0,2.96117 0,8.79468 0,8.79468 z"
           id="path3924"
           inkscape:connector-curvature="0"
           sodipodi:nodetypes="ccccc" />
        <path
           sodipodi:nodetypes="ccccc"
           inkscape:connector-curvature="0"
           id="path3926"
           d="m 408.12225,431.83041 0,-8.79467 29.2555,20.7712 c 0,2.96117 0,8.79468 0,8.79468 z"
           style="fill:#b3b3b3;stroke:none" />
        <path
           style="fill:#b3b3b3;stroke:none"
           d="m 408.12225,420.09687 0,-8.79467 29.2555,20.7712 c 0,2.96117 0,8.79468 0,8.79468 z"
           id="path3928"
           inkscape:connector-curvature="0"
           sodipodi:nodetypes="ccccc" />
      </g>
      <g
         id="g3976"
         transform="translate(11.5,4.8651275)">
        <path
           style="fill:#cccccc;stroke:none"
           d="m 243.10783,450.5397 0,-53.32838 32.00463,21.13703 7.99164,15.76861 0,43.08692 z"
           id="path3888"
           inkscape:connector-curvature="0"
           sodipodi:nodetypes="cccccc" />
        <path
           style="fill:#e6e6e6;stroke:none"
           d="m 275.042,418.22672 0.0156,10.58881 7.98437,5.29441 z"
           id="path3930-1"
           inkscape:connector-curvature="0"
           sodipodi:nodetypes="cccc" />
      </g>
      <g
         id="g3932"
         transform="translate(6.25,6.8684153)">
        <path
           sodipodi:nodetypes="cccccc"
           inkscape:connector-curvature="0"
           id="path3857-8"
           d="m 236.57926,458.28998 0,-53.32838 32.00462,21.13703 7.99165,15.76861 0,43.08692 z"
           style="fill:#e6e6e6;stroke:none" />
        <path
           sodipodi:nodetypes="cccc"
           inkscape:connector-curvature="0"
           id="path3930"
           d="m 268.63347,426.11925 0.0156,10.58881 7.98437,5.2944 z"
           style="fill:#f9f9f9;stroke:none" />
      </g>
      <g
         id="g4016"
         transform="translate(343.72644,300.32348)">
        <path
           style="fill:#808080;stroke:none"
           d="m 282.5625,126.15412 60,40 -60,40 -60,-40 z"
           id="path4018"
           inkscape:connector-curvature="0" />
        <path
           style="fill:#4d4d4d;stroke:none"
           d="m 280,122.03587 0,-80.000143 -60,40 0,80.000143 z"
           id="path4020"
           inkscape:connector-curvature="0" />
        <path
           inkscape:connector-curvature="0"
           id="path4022"
           d="m 285.00149,122.07274 0,-80.00001 60,40 0,80.00001 z"
           style="fill:#cccccc;stroke:none" />
      </g>
    </g>
  </g>
</svg>
